<svg width="122" height="38" viewBox="0 0 122 38" fill="none" xmlns="http://www.w3.org/2000/svg">
<g clip-path="url(#clip0_86_54)">
<path d="M43.1078 2.02879H47.0169L49.4754 13.3966L52.8203 2.02879H56.4469L59.5902 13.1545L62.4915 2.02879H66.1586L61.9678 17.5088H57.5349L54.6336 6.70535L51.6109 17.5088H47.0574L43.1078 2.02879Z" fill="#009789"/>
<path d="M71.4911 5.20132V8.28954H79.8183V11.3274H71.4911V14.4437H80.4651V17.5071H67.8637V2.02797H80.4651V5.20132H71.4911Z" fill="#009789"/>
<path d="M60.0545 29.5865C59.3408 28.6419 58.4221 28.2791 58.0595 28.156C58.4064 27.9792 58.9558 27.6379 59.4292 27.0255C60.2528 25.9611 60.2817 24.7959 60.2751 24.4042C60.2495 24.0315 60.1074 22.6167 58.9459 21.4647C57.4721 20.0061 55.5555 20.1483 55.278 20.1731H44.8798V36.9439H55.278C55.5308 36.972 57.9835 37.2315 59.6464 35.3903C60.7071 34.216 60.8525 32.8516 60.8773 32.3871C60.9029 32.0458 60.9442 30.7674 60.0545 29.5865ZM55.278 23.6811C55.3507 23.6844 55.8149 23.7125 56.1429 24.1108C56.4428 24.4736 56.4147 24.8876 56.4048 24.9694C56.4139 25.124 56.4238 25.6041 56.1049 26.0776C55.8174 26.5074 55.4258 26.6842 55.278 26.7437H48.8286V23.6811H55.278ZM56.6675 32.7689C56.147 33.4036 55.335 33.3218 55.2788 33.3152H48.8294V29.927H55.2788C55.4085 29.9303 55.9859 29.9551 56.4659 30.4162C56.9145 30.8517 56.9806 31.3822 56.993 31.5211C57.0078 31.6136 57.1061 32.2417 56.6675 32.7689Z" fill="#F37021"/>
<path d="M96.7311 10.6844C96.076 9.81754 95.2325 9.48451 94.8996 9.37129C95.2185 9.20932 95.7224 8.89612 96.1569 8.33334C96.9137 7.35655 96.9393 6.28637 96.9335 5.92689C96.9103 5.58476 96.7798 4.2865 95.7133 3.22789C94.3602 1.88831 92.6014 2.01888 92.3461 2.04202H82.8005V17.4377H92.3461C92.5783 17.4642 94.8294 17.7013 96.3569 16.0114C97.3308 14.9329 97.4638 13.6809 97.487 13.2545C97.5101 12.943 97.5481 11.7687 96.7311 10.6844ZM92.3461 5.26412C92.413 5.2666 92.8385 5.29305 93.14 5.65831C93.4151 5.99135 93.3895 6.37149 93.3804 6.44669C93.3895 6.58883 93.3978 7.0293 93.1053 7.46398C92.8418 7.85817 92.4824 8.02097 92.3461 8.07551H86.4254V5.26412H92.3461ZM93.6216 13.6066C93.1433 14.1892 92.399 14.114 92.3469 14.1082H86.4262V10.9976H92.3469C92.4659 11.0009 92.9963 11.0241 93.4366 11.4472C93.848 11.8472 93.9091 12.3339 93.9207 12.462C93.9347 12.5455 94.0239 13.1223 93.6216 13.6066Z" fill="#009789"/>
<path d="M71.0326 31.6169V31.7963L70.8748 31.626L71.0326 31.6169Z" fill="#F37021"/>
<path d="M75.0896 31.3765C75.658 31.1996 76.684 30.7922 77.6026 29.8485C79.1747 28.2411 79.2945 26.2487 79.3102 25.7215C79.3193 25.3992 79.3515 23.2241 77.5902 21.5845C75.9017 20.0152 73.8463 20.1317 73.5051 20.1574H63.2961V36.972H67.2201V31.7963H71.0334L70.8757 31.626L71.0334 31.6169V31.7971L75.601 36.6885H80.0611L75.0896 31.3765ZM67.2201 28.437V23.8422H73.5051C73.7075 23.8546 74.2156 23.9183 74.689 24.2968C75.3771 24.8529 75.4564 25.6545 75.4688 25.8033C75.4911 25.9231 75.6646 26.9495 74.9417 27.7263C74.4775 28.2312 73.8967 28.3519 73.6952 28.3833C72.8079 28.4023 71.9215 28.418 71.0343 28.437H67.2201Z" fill="#F37021"/>
<path d="M71.0326 31.6169V31.7963L70.8748 31.626L71.0326 31.6169Z" fill="#F37021"/>
<path d="M85.9446 20.145H81.9686V36.972H85.9446V20.145Z" fill="#F37021"/>
<path d="M105.718 36.8488H100.667L93.2243 29.0874V36.972H89.2499V20.145H93.2243V27.6445L100.238 20.2681H104.831L97.2367 28.2312L105.718 36.8488Z" fill="#F37021"/>
<path d="M116.974 33.516C117.304 33.316 117.834 32.9846 117.995 32.3607C118.197 31.5756 117.671 30.8872 117.646 30.8558C117.1 30.1641 116.216 30.2046 114.18 30.0766C111.871 29.9311 110.696 29.8509 109.721 29.4857C108.865 29.165 107.589 28.6882 106.927 27.4428C106.358 26.3735 106.425 25.086 106.447 24.6703C106.463 24.3637 106.477 24.0067 106.603 23.591C106.88 22.6787 107.523 21.8779 108.534 21.1879C109.925 20.2384 111.702 19.764 113.865 19.764C116.14 19.764 117.986 20.2541 119.402 21.2342C120.818 22.2143 121.596 24.0075 121.596 25.5339L118.023 25.4802C118.031 25.281 118.002 24.9926 117.881 24.681C117.218 22.9745 114.468 23.0481 113.591 23.0555C112.455 23.0638 111.08 23.1605 110.468 24.0026C110.199 24.3728 110.065 24.9992 110.287 25.5347C110.511 26.076 111.03 26.3132 111.415 26.4884C112.012 26.7602 112.512 26.7842 113.076 26.8189C113.92 26.8701 114.761 26.9718 115.606 27.0123C117.313 27.0941 118.686 27.1528 119.878 27.98C119.974 28.0461 121.918 29.4419 122 31.7963C122.039 32.9053 121.647 33.749 121.489 34.054C120.944 35.1093 120.136 35.6522 119.663 35.9621C117.796 37.1835 115.808 37.1554 113.979 37.129C112.77 37.1116 111.372 37.0786 109.713 36.4166C108.728 36.0233 107.621 35.582 106.811 34.4283C106.021 33.302 105.936 32.1012 105.936 31.5277C107.19 31.5368 108.443 31.5459 109.697 31.555C109.816 31.9698 110.078 32.6417 110.691 33.1673C111.421 33.7945 112.221 33.8474 113.727 33.9465C115.082 34.0358 116.032 34.0854 116.974 33.516Z" fill="#F37021"/>
<path d="M16.9054 0H23.4118C23.7571 0 24.0372 0.280147 24.0372 0.625579V12.0752H16.2792V0.625579C16.2801 0.280147 16.5601 0 16.9054 0Z" fill="#333333"/>
<path d="M26.9764 23.953C25.9835 24.981 24.9393 26.4074 23.8835 27.8585C22.551 29.6915 21.5465 31.4451 20.7906 32.9805H20.7674V24.9901C21.4325 24.7579 21.9091 24.1224 21.9091 23.3737C21.9091 22.4266 21.1417 21.6597 20.1958 21.6597C19.2491 21.6597 18.4824 22.4275 18.4824 23.3737C18.4824 24.1274 18.9657 24.767 19.6382 24.9951V32.9689C18.8897 31.6103 18.0149 30.1683 16.9987 28.675C15.7852 26.8933 14.5593 25.3207 13.3903 23.953C14.0132 23.0878 14.7344 21.925 15.3507 20.464C15.962 19.0145 16.2924 17.6939 16.4783 16.6493H23.8405C24.0966 17.8914 24.5361 19.4334 25.3242 21.1036C25.8529 22.2225 26.432 23.1712 26.9764 23.953Z" fill="#333333"/>
<path d="M13.254 34.6531V37.8719C13.254 37.8719 13.4539 37.8719 10.7551 37.8719C4.28914 37.8769 5.18629 31.6723 5.18629 31.6723C5.18629 31.6723 5.18629 28.8097 5.18629 25.038C5.18629 24.0224 4.99298 22.9729 4.1867 22.1961C3.49277 21.5275 2.60223 20.8383 2.07683 20.792H0V18.2583C0.681537 18.2583 1.3639 18.2583 2.04544 18.2583C4.97398 18.0848 5.18629 12.7091 5.18629 12.7091V5.0443C5.35233 -0.678471 10.9104 0.0347059 10.9104 0.0347059H13.2086V3.22706C13.2086 3.22706 11.7183 3.21301 10.4279 3.22706C8.55762 3.24772 8.56919 5.0443 8.56919 5.0443C8.56919 5.0443 8.56919 7.08796 8.56919 12.7083C8.56919 18.3286 6.45766 19.1268 5.90252 19.3772C8.65923 21.3102 8.56919 25.0372 8.56919 25.0372C8.56919 25.0372 8.56919 28.7742 8.56919 31.6715C8.56919 34.5688 10.228 34.6531 10.228 34.6531H13.254Z" fill="#333333"/>
<path d="M27.1219 34.6531V37.8719C27.1219 37.8719 26.9219 37.8719 29.6208 37.8719C36.0867 37.8769 35.1896 31.6723 35.1896 31.6723C35.1896 31.6723 35.1896 28.8097 35.1896 25.038C35.1896 24.0224 35.3829 22.9729 36.1892 22.1961C36.8831 21.5275 37.7737 20.8383 38.2991 20.792H40.3767V18.2583C39.6952 18.2583 39.0128 18.2583 38.3313 18.2583C35.4027 18.0848 35.1904 12.7091 35.1904 12.7091V5.0443C35.0244 -0.678471 29.4663 0.0347059 29.4663 0.0347059H27.1681V3.22706C27.1681 3.22706 28.6584 3.21301 29.9488 3.22706C31.8166 3.24772 31.805 5.0443 31.805 5.0443C31.805 5.0443 31.805 7.08796 31.805 12.7083C31.805 18.3286 33.9166 19.1268 34.4717 19.3772C31.7158 21.3102 31.805 25.0372 31.805 25.0372C31.805 25.0372 31.805 28.7742 31.805 31.6715C31.805 34.5688 30.1462 34.6531 30.1462 34.6531H27.1219Z" fill="#333333"/>
<path d="M22.0454 34.2928H18.3395V38H22.0454V34.2928Z" fill="#F37021"/>
<path d="M24.7914 12.9868H15.5457C15.3168 12.9868 15.1318 13.1719 15.1318 13.4008V15.3445C15.1318 15.5734 15.3168 15.7585 15.5457 15.7585H24.7914C25.0203 15.7585 25.2053 15.5734 25.2053 15.3445V13.4008C25.2053 13.1719 25.0194 12.9868 24.7914 12.9868ZM17.663 15.0775C17.663 15.3064 17.4779 15.4916 17.2491 15.4916H15.8505C15.6217 15.4916 15.4366 15.3064 15.4366 15.0775V13.7082C15.4366 13.4793 15.6217 13.2942 15.8505 13.2942H17.2491C17.4779 13.2942 17.663 13.4793 17.663 13.7082V15.0775Z" fill="#333333"/>
</g>
<defs>
<clipPath id="clip0_86_54">
<rect width="122" height="38" fill="white"/>
</clipPath>
</defs>
</svg>
